<?xml version="1.0" encoding="UTF-8"?>
<svg version="1.1" xmlns="http://www.w3.org/2000/svg" width="538" height="538">
<path d="M0 0 C177.54 0 355.08 0 538 0 C538 177.54 538 355.08 538 538 C360.46 538 182.92 538 0 538 C0 360.46 0 182.92 0 0 Z " fill="#F4CA5D" transform="translate(0,0)"/>
<path d="M0 0 C7.63359116 4.49261942 10.84434486 10.69011698 13 19 C13.34933594 20.15757813 13.69867188 21.31515625 14.05859375 22.5078125 C15.50209855 28.37562848 15.47270741 34.36183488 15.625 40.375 C15.66222168 41.65141357 15.69944336 42.92782715 15.73779297 44.24291992 C16.07558654 56.8307896 16.18600468 69.40906617 16 82 C15.98743164 83.00337402 15.97486328 84.00674805 15.96191406 85.04052734 C15.77385156 96.84049017 14.87409481 108.38655379 13.125 120.0625 C12.96354492 121.15111328 12.80208984 122.23972656 12.63574219 123.36132812 C11.92698902 127.74596423 11.24989712 131.82607178 9.37890625 135.875 C7.91346156 139.19612112 7.67937069 141.34300856 7.8125 144.9375 C7.85310547 146.37416016 7.85310547 146.37416016 7.89453125 147.83984375 C7.92933594 148.55269531 7.96414063 149.26554688 8 150 C9.32 150.33 10.64 150.66 12 151 C12.33 150.34 12.66 149.68 13 149 C14.60585493 149.62064937 16.20962617 150.2466918 17.8125 150.875 C18.70582031 151.22304687 19.59914063 151.57109375 20.51953125 151.9296875 C23 153 23 153 26 155 C28.06989114 155.53425569 30.15615955 156.00655842 32.25 156.4375 C37.20548735 157.53078379 41.43988096 158.81114286 46 161 C47.7325 161.7425 47.7325 161.7425 49.5 162.5 C51.2325 163.2425 51.2325 163.2425 53 164 C54.5778125 164.5878125 54.5778125 164.5878125 56.1875 165.1875 C65.08816884 169.03913472 72.7428919 175.33341438 79.74609375 181.921875 C82.0020066 184.05439024 82.0020066 184.05439024 84.578125 186.0390625 C88.20142705 188.97276835 91.01129512 192.43965094 94 196 C94.63035156 196.70769531 95.26070313 197.41539062 95.91015625 198.14453125 C104.49078817 208.15811164 110.64640844 220.59328604 115 233 C115.34675781 233.91652344 115.69351562 234.83304688 116.05078125 235.77734375 C120.67718507 248.57986487 121.41007386 261.69945557 121.375 275.1875 C121.37512085 275.90789459 121.3752417 276.62828918 121.37536621 277.37051392 C121.34765433 289.01127754 120.22184515 299.79406306 117 311 C116.64612877 312.36886329 116.29582644 313.7386545 115.94921875 315.109375 C113.37794808 324.83850726 113.37794808 324.83850726 110 329 C109.2456205 330.2981725 108.51734534 331.61178007 107.8125 332.9375 C105.62366381 336.92501728 103.3494512 340.85524992 101 344.75 C100.360625 345.81734375 99.72125 346.8846875 99.0625 347.984375 C96.96964348 351.04438491 94.65875862 353.43031202 92 356 C90.70480005 358.16620544 90.70480005 358.16620544 90 360 C95.35615556 359.69981911 95.35615556 359.69981911 99.4375 356.4375 C102 354 102 354 105.6875 353.5 C114.6034815 354.12009646 123.95407358 357.59482614 130.72265625 363.50390625 C132 365 132 365 132.5 367.4375 C132 370 132 370 129.953125 372.140625 C126.30567315 374.43716876 123.41383585 374.49301312 119.25 374.3125 C118.56550781 374.30283203 117.88101562 374.29316406 117.17578125 374.28320312 C112.16919168 374.16919168 112.16919168 374.16919168 111 373 C109.66197814 372.77486899 108.31426977 372.60639193 106.96484375 372.46484375 C106.15595703 372.37783203 105.34707031 372.29082031 104.51367188 372.20117188 C103.66353516 372.11416016 102.81339844 372.02714844 101.9375 371.9375 C101.08349609 371.84662109 100.22949219 371.75574219 99.34960938 371.66210938 C97.23348465 371.43749278 95.11679106 371.21824773 93 371 C93.16298584 371.61584961 93.32597168 372.23169922 93.49389648 372.86621094 C94.29794679 376.256177 94.05792369 379.52457841 94 383 C92.79537109 383.33644531 92.79537109 383.33644531 91.56640625 383.6796875 C88.79114697 384.73112651 88.79114697 384.73112651 88.21484375 387.3203125 C88.12332031 388.24585938 88.03179687 389.17140625 87.9375 390.125 C87.30675701 394.63364431 86.31869983 397.84792293 84.1171875 401.79296875 C82.7400229 404.51359112 81.81278101 407.30738054 80.8125 410.1875 C72.66573543 431.59127236 53.93206204 448.45028311 33.42578125 457.74609375 C30 459 30 459 27.29394531 459.4050293 C24.18934403 459.94141426 21.78364648 460.50990939 19 462 C16.74063654 465.75300123 15.97372432 469.67141218 15.125 473.9375 C12.6128792 485.31553651 12.6128792 485.31553651 9.55859375 488.7265625 C5.57938167 490.70705584 3.42615393 490.49179488 -1 490 C-3.4375 489.0625 -3.4375 489.0625 -5 487 C-6.6360764 480.84523641 -6.10920781 474.21156375 -5 468 C-3.03177114 466.03177114 0.34808709 466.33751619 3 466 C2.67 464.68 2.34 463.36 2 462 C-2.34330065 460.86989847 -6.385418 461.05553513 -10.8125 461.375 C-12.39962945 461.47698895 -13.98687744 461.57714451 -15.57421875 461.67578125 C-16.43321777 461.72943848 -17.2922168 461.7830957 -18.17724609 461.83837891 C-23.49030352 462.14258614 -28.80767816 462.34840087 -34.125 462.5625 C-35.19854736 462.60616699 -36.27209473 462.64983398 -37.37817383 462.69482422 C-39.91874124 462.79762771 -42.45934469 462.899396 -45 463 C-45 464.32 -45 465.64 -45 467 C-44.34 467.33 -43.68 467.66 -43 468 C-41.85719527 471.97783954 -41.80286401 475.94351245 -41.75 480.0625 C-41.72421875 481.27035156 -41.6984375 482.47820312 -41.671875 483.72265625 C-42.02213607 487.22109718 -42.48201945 488.59302092 -45 491 C-48.59899629 491.7762541 -50.8531699 491.68113439 -54.05859375 489.77734375 C-60.39556894 484.71015943 -64.60132804 477.96039118 -65.8125 469.875 C-65.874375 468.92625 -65.93625 467.9775 -66 467 C-63.69 466.67 -61.38 466.34 -59 466 C-58.67 464.68 -58.34 463.36 -58 462 C-60.31858422 460.84070789 -61.99643537 460.73961926 -64.578125 460.53515625 C-65.49207031 460.45716797 -66.40601563 460.37917969 -67.34765625 460.29882812 C-69.26671581 460.14256554 -71.18598678 459.98887587 -73.10546875 459.83789062 C-78.04021096 459.41224316 -82.34531106 458.80335171 -87 457 C-88.34578125 456.60941406 -88.34578125 456.60941406 -89.71875 456.2109375 C-102.6525307 452.32353712 -113.33250705 445.08965682 -124 437 C-124.71800781 436.49855469 -125.43601562 435.99710937 -126.17578125 435.48046875 C-141.3572483 424.77974537 -149.65080993 407.34815759 -155 390 C-155 389.01 -155 388.02 -155 387 C-156.65 387 -158.3 387 -160 387 C-160.28875 385.865625 -160.5775 384.73125 -160.875 383.5625 C-161.24625 382.386875 -161.6175 381.21125 -162 380 C-162.66 379.67 -163.32 379.34 -164 379 C-164 377.35 -164 375.7 -164 374 C-164.98395752 374.01571045 -165.96791504 374.0314209 -166.98168945 374.04760742 C-170.63248508 374.10190978 -174.28324501 374.13635085 -177.93432617 374.16479492 C-179.51446536 374.17988094 -181.09456269 374.2003525 -182.67456055 374.22631836 C-184.94590585 374.26271126 -187.21669759 374.27972762 -189.48828125 374.29296875 C-190.54780754 374.31619453 -190.54780754 374.31619453 -191.6287384 374.33988953 C-194.52889363 374.34088452 -196.50770868 374.34068324 -198.93432617 372.66137695 C-200.69535587 369.91594577 -200.57161198 368.17562213 -200 365 C-195.74423999 360.41687384 -190.71792054 358.33291158 -185 356 C-184.34 355.67 -183.68 355.34 -183 355 C-180.1875 354.5625 -180.1875 354.5625 -177 355 C-174.4375 357.8125 -174.4375 357.8125 -173.21875 359.46875 C-170.59489444 362.76538904 -167.05552308 364.24897721 -163 365 C-163 365.66 -163 366.32 -163 367 C-159.7 366.67 -156.4 366.34 -153 366 C-153.50980961 361.96621634 -153.50980961 361.96621634 -156.0625 360.75 C-157.0215625 360.37875 -157.0215625 360.37875 -158 360 C-158 359.34 -158 358.68 -158 358 C-159.11181641 357.85111328 -159.11181641 357.85111328 -160.24609375 357.69921875 C-166.96615578 355.99299023 -171.56723095 349.68182464 -175 344 C-176.2065625 342.4840625 -176.2065625 342.4840625 -177.4375 340.9375 C-181.08608619 335.80286351 -182.95643739 329.90604572 -185 324 C-185.43046631 322.7620166 -185.43046631 322.7620166 -185.86962891 321.49902344 C-186.8187804 318.75260605 -187.75585093 316.00240175 -188.6875 313.25 C-188.9851123 312.37520996 -189.28272461 311.50041992 -189.58935547 310.59912109 C-190.01498779 309.32029053 -190.01498779 309.32029053 -190.44921875 308.015625 C-190.70018311 307.26571289 -190.95114746 306.51580078 -191.2097168 305.74316406 C-193.20382556 298.82138277 -194.30946609 292.36042735 -194.30078125 285.15234375 C-194.30506638 284.3373793 -194.3093515 283.52241486 -194.31376648 282.68275452 C-194.31947001 280.96763022 -194.32003967 279.25248174 -194.31567383 277.53735352 C-194.31253701 274.96782031 -194.33594231 272.39946768 -194.36132812 269.83007812 C-194.4345554 250.48806646 -191.09863092 232.68469456 -181 216 C-180.59910156 215.11828125 -180.19820312 214.2365625 -179.78515625 213.328125 C-177.60492377 209.2634465 -174.93557014 205.91559496 -172 202.375 C-171.42548096 201.67640869 -170.85096191 200.97781738 -170.2590332 200.25805664 C-159.4024967 187.15626925 -148.44751512 176.15744024 -134 167 C-133.34902344 166.58621094 -132.69804687 166.17242187 -132.02734375 165.74609375 C-124.86375978 161.42762114 -117.44892366 158.92900553 -109.2578125 157.50390625 C-106.23884793 156.8301235 -103.72725723 155.42856331 -101 154 C-99.68 154 -98.36 154 -97 154 C-97 153.34 -97 152.68 -97 152 C-93.04 151.67 -89.08 151.34 -85 151 C-84.67 150.01 -84.34 149.02 -84 148 C-81.69 148 -79.38 148 -77 148 C-78.14607334 135.54554641 -78.14607334 135.54554641 -80.49609375 123.28515625 C-81.45205922 118.94996401 -81.94974443 114.53456459 -82.53515625 110.13671875 C-82.90661668 107.18849981 -82.90661668 107.18849981 -83.51898193 105.1242981 C-84.07774745 102.6566475 -84.14185228 100.40495331 -84.16113281 97.87451172 C-84.17074036 96.85179169 -84.1803479 95.82907166 -84.19024658 94.77536011 C-84.19449646 93.67128815 -84.19874634 92.56721619 -84.203125 91.4296875 C-84.20882507 90.27945099 -84.21452515 89.12921448 -84.22039795 87.94412231 C-84.22985037 85.50133177 -84.23638289 83.05852845 -84.24023438 80.61572266 C-84.24983661 76.93758628 -84.28081442 73.26003401 -84.3125 69.58203125 C-84.41855683 45.88772872 -82.54119713 22.65138926 -68 3 C-66 1 -66 1 -63.6875 0.375 C-60.46069548 1.12541965 -60.1456439 1.7467632 -58.375 4.4375 C-54.20974258 11.94540915 -52.71635112 19.17153902 -51.76660156 27.64477539 C-50.76723137 36.47084582 -48.98880935 45.14948094 -47.21533203 53.84912109 C-45.11731506 64.49527396 -44.46028312 74.85488928 -44.3125 85.6875 C-44.28022737 87.38665213 -44.24717521 89.08578961 -44.21337891 90.78491211 C-44.11870415 95.85640096 -44.05409294 100.92793222 -44 106 C-43.99139954 106.77420288 -43.98279907 107.54840576 -43.97393799 108.34606934 C-43.92166769 113.251578 -43.89057968 118.15673442 -43.875 123.0625 C-43.86786987 124.90557739 -43.86786987 124.90557739 -43.8605957 126.78588867 C-43.862771 127.92002197 -43.86494629 129.05415527 -43.8671875 130.22265625 C-43.86831543 131.19984619 -43.86944336 132.17703613 -43.87060547 133.18383789 C-44.01024971 136.22307624 -44.29147228 139.03824798 -45 142 C-47.5625 143.375 -47.5625 143.375 -50 144 C-50 145.32 -50 146.64 -50 148 C-45.49764405 148.02472359 -40.99532764 148.04287119 -36.49291992 148.05493164 C-34.9613374 148.0599596 -33.42975967 148.06678284 -31.89819336 148.07543945 C-29.69643978 148.08757229 -27.49474967 148.09324367 -25.29296875 148.09765625 C-24.26625313 148.10539818 -24.26625313 148.10539818 -23.21879578 148.11329651 C-20.19093758 148.1136536 -17.89849858 147.96616619 -15 147 C-15 145.68 -15 144.36 -15 143 C-18.3 142.34 -21.6 141.68 -25 141 C-25.1305291 131.99349219 -24.70127314 123.02730216 -24.25537109 114.03466797 C-24.1263367 111.40226965 -24.00637088 108.76955794 -23.88671875 106.13671875 C-23.38625846 95.67275002 -22.48295393 85.37339917 -21 75 C-20.34 75 -19.68 75 -19 75 C-19.00523682 74.42668945 -19.01047363 73.85337891 -19.01586914 73.26269531 C-19.23746047 45.29169853 -19.23746047 45.29169853 -14.9765625 32.5703125 C-13.66726938 27.78353685 -13.16150991 23.02572871 -12.77172852 18.0871582 C-12.23079262 12.00761964 -10.85569618 6.47426158 -7.125 1.5 C-4.44277838 -0.39333291 -3.23600668 -0.36696983 0 0 Z " fill="#F7EACC" transform="translate(303,22)"/>
<path d="M0 0 C177.54 0 355.08 0 538 0 C538 177.54 538 355.08 538 538 C360.46 538 182.92 538 0 538 C0 360.46 0 182.92 0 0 Z M4 3 C4 178.56 4 354.12 4 535 C179.56 535 355.12 535 536 535 C536 359.44 536 183.88 536 3 C360.44 3 184.88 3 4 3 Z " fill="#131315" transform="translate(0,0)"/>
<path d="M0 0 C7.65296951 2.78399363 13.52686347 8.14120122 17.21484375 15.38671875 C18.2592182 17.89715846 19.14981211 20.41780143 20 23 C20.28746094 23.76957031 20.57492187 24.53914063 20.87109375 25.33203125 C25.89800625 39.83551565 24.23918513 57.11676688 24.25 72.25 C24.25133942 73.35684143 24.25267883 74.46368286 24.25405884 75.60406494 C24.24153619 123.33090055 24.24153619 123.33090055 15.5625 143.25 C15.13710938 144.2296875 14.71171875 145.209375 14.2734375 146.21875 C12.60448201 149.8638307 10.84740031 153.44204384 9 157 C7.68 157 6.36 157 5 157 C4.9176501 155.31335214 4.8602088 153.62548293 4.8125 151.9375 C4.76029297 150.52791016 4.76029297 150.52791016 4.70703125 149.08984375 C5.00099827 145.9894716 5.9123712 143.88460777 7.20483398 141.08764648 C8.91327116 136.60227765 9.42396192 131.78925978 10.125 127.0625 C10.29676758 125.91587891 10.46853516 124.76925781 10.64550781 123.58789062 C12.27677585 112.06448652 12.85435784 100.62709896 13 89 C13.01514648 87.97471191 13.03029297 86.94942383 13.04589844 85.89306641 C13.12811392 79.41508804 13.12008796 72.94184459 13.04150391 66.46386719 C13.01289947 64.076575 12.99221192 61.68917923 12.97802734 59.30175781 C13.41397964 33.34344473 13.41397964 33.34344473 2 11 C-0.2729325 8.86912578 -1.43221701 8.09936202 -4.5 7.5625 C-7.85274211 8.14922987 -8.82626964 9.41678937 -11 12 C-13.24094163 17.74511676 -14.07948108 23.81049435 -14.4375 29.9375 C-14.69355035 34.24246164 -15.49681193 37.74806994 -16.95703125 41.796875 C-19.54167794 49.92293948 -19.89505136 57.85936106 -20.25 66.3125 C-20.32660682 67.84317569 -20.40472331 69.37377661 -20.484375 70.90429688 C-20.67359923 74.60216868 -20.84259322 78.30062074 -21 82 C-21.66 82 -22.32 82 -23 82 C-23.07516846 83.71993164 -23.07516846 83.71993164 -23.15185547 85.47460938 C-25.00086026 127.45564907 -25.00086026 127.45564907 -27 148 C-25.906875 147.95875 -24.81375 147.9175 -23.6875 147.875 C-20 148 -20 148 -17 150 C-17 151.32 -17 152.64 -17 154 C-20.59444183 156.39629455 -23.14861652 156.25781331 -27.29296875 156.1953125 C-27.99899734 156.1924826 -28.70502594 156.18965271 -29.43244934 156.18673706 C-31.68430633 156.17555464 -33.93576352 156.1504542 -36.1875 156.125 C-37.71548904 156.11496767 -39.24348433 156.10584226 -40.77148438 156.09765625 C-44.51447663 156.07562172 -48.25717056 156.04110567 -52 156 C-52.495 153.525 -52.495 153.525 -53 151 C-50 149 -50 149 -47 149 C-46.89326089 130.93481691 -46.89224651 112.86857032 -47.26345825 94.80618286 C-47.29562455 93.17058568 -47.32334584 91.53489375 -47.34616089 89.8991394 C-47.51040983 78.64714147 -48.7603725 68.02392875 -51 57 C-52.59169416 48.86026887 -54.07688608 40.80576235 -55 32.5625 C-56.03276834 23.62256552 -58.28427096 16.64273327 -63 9 C-65.36868112 8.69178082 -65.36868112 8.69178082 -68 9 C-69.79087123 10.54421316 -69.79087123 10.54421316 -71.125 12.6875 C-71.62902344 13.42355469 -72.13304687 14.15960938 -72.65234375 14.91796875 C-73.09707031 15.60503906 -73.54179687 16.29210937 -74 17 C-74.556875 17.825 -75.11375 18.65 -75.6875 19.5 C-79.04756796 25.90012944 -80.72130456 32.52717846 -82.125 39.5625 C-82.29386719 40.37396484 -82.46273437 41.18542969 -82.63671875 42.02148438 C-83.11311137 44.34530506 -83.58072221 46.66513796 -84 49 C-84.17942139 49.99781494 -84.35884277 50.99562988 -84.54370117 52.02368164 C-85.28586251 57.38076719 -85.16259041 62.78202598 -85.16796875 68.1796875 C-85.17129715 69.34702423 -85.17462555 70.51436096 -85.17805481 71.71707153 C-85.1831041 74.17970385 -85.18546375 76.64234298 -85.18530273 79.10498047 C-85.18748849 82.85525879 -85.20566387 86.60524242 -85.22460938 90.35546875 C-85.22754392 92.75520733 -85.22952831 95.15494731 -85.23046875 97.5546875 C-85.23765427 98.66746063 -85.24483978 99.78023376 -85.25224304 100.92672729 C-85.23594414 106.53082929 -84.90198972 111.66029246 -83.48432922 117.09341431 C-82.69805857 120.1886072 -82.37891883 123.33332122 -82 126.5 C-81.47823511 130.65755513 -80.91180992 134.69037804 -79.875 138.75 C-78.63897334 143.8003277 -78.82614952 148.83277749 -79 154 C-80.90234375 153.75 -80.90234375 153.75 -83 153 C-83.94140625 151.25 -83.94140625 151.25 -84.5625 149 C-84.77003906 148.278125 -84.97757813 147.55625 -85.19140625 146.8125 C-85.45824219 145.884375 -85.72507813 144.95625 -86 144 C-86.47334981 142.65212989 -86.94738406 141.30450007 -87.421875 139.95703125 C-94.06583055 119.96981539 -94.4920706 99.15705957 -94.5 78.3125 C-94.50421967 77.20224457 -94.50843933 76.09198914 -94.51278687 74.9480896 C-94.54202502 57.44477217 -93.92068717 39.93761953 -87.6875 23.375 C-87.38263672 22.540896 -87.07777344 21.70679199 -86.76367188 20.84741211 C-83.7550454 12.89190942 -80.28567777 5.48783737 -72.84375 0.8203125 C-69.43678191 -0.69549957 -66.53639861 -0.9020758 -63 0 C-55.65614781 3.27213515 -52.36038582 7.94809544 -49 15 C-48.49210937 15.80953125 -47.98421875 16.6190625 -47.4609375 17.453125 C-32.6938411 43.19683317 -38.9258795 87.50537288 -38.875 116.375 C-38.87223053 117.42600891 -38.86946106 118.47701782 -38.86660767 119.55987549 C-38.86076689 122.58943189 -38.86261777 125.61888068 -38.8671875 128.6484375 C-38.86521866 129.54520203 -38.86324982 130.44196655 -38.86122131 131.36590576 C-38.88262396 137.29670131 -39.3085616 143.11020645 -40 149 C-38.68 149 -37.36 149 -36 149 C-36.00523682 148.33468262 -36.01047363 147.66936523 -36.01586914 146.98388672 C-36.03675253 143.94760089 -36.0496962 140.91133022 -36.0625 137.875 C-36.07087891 136.82828125 -36.07925781 135.7815625 -36.08789062 134.703125 C-36.09111328 133.68476563 -36.09433594 132.66640625 -36.09765625 131.6171875 C-36.10289307 130.68503418 -36.10812988 129.75288086 -36.11352539 128.79248047 C-35.99149389 125.79076798 -35.49861324 122.96060573 -35 120 C-34.88192177 118.00180415 -34.8012861 116.00112075 -34.75390625 114 C-34.72232422 112.87255371 -34.69074219 111.74510742 -34.65820312 110.58349609 C-34.62662109 109.40094238 -34.59503906 108.21838867 -34.5625 107 C-34.30041485 98.60994367 -33.86833231 90.49625918 -32.46484375 82.21875 C-31.91947285 78.44240021 -31.72991521 74.68195205 -31.5625 70.875 C-31.25446024 64.2244215 -30.49795077 57.70707673 -29.5 51.125 C-29.36924072 50.26245605 -29.23848145 49.39991211 -29.10375977 48.51123047 C-28.58299378 45.20963358 -28.05986157 42.17958471 -27 39 C-26.822485 37.35728178 -26.68108008 35.71052108 -26.5625 34.0625 C-26.05792023 27.97498922 -25.08011017 22.00876824 -24 16 C-23.34 16 -22.68 16 -22 16 C-22 14.845 -22 13.69 -22 12.5 C-21.32977678 6.71545807 -17.31394295 3.53760966 -13 0 C-9.02054729 -1.98972636 -4.23717587 -0.80253795 0 0 Z " fill="#1C180D" transform="translate(305,15)"/>
<path d="M0 0 C9.20504986 0.09257952 18.56716097 2.12733048 26.8125 6.25 C26.8125 6.91 26.8125 7.57 26.8125 8.25 C27.781875 8.3325 28.75125 8.415 29.75 8.5 C37.84391304 9.68437615 44.43404731 14.05298749 50.75 19 C51.44311279 19.53512207 52.13622559 20.07024414 52.8503418 20.62158203 C54.22363993 21.6839236 55.59426977 22.74972551 56.96191406 23.81933594 C58.51121264 25.01707864 60.09202552 26.17390807 61.6796875 27.3203125 C68.6455517 32.46125381 73.48038957 38.84007239 78.62744141 45.70410156 C80.08697154 47.6080457 81.64730965 49.4031445 83.25 51.1875 C86.46573461 55.03069502 88.8819888 58.85899079 90.7109375 63.55859375 C92.00566206 66.7219456 93.58814626 69.66688649 95.1875 72.6875 C100.27546317 82.63137619 102.8579997 92.98311473 104.41796875 104.01953125 C104.58661059 106.21515557 104.58661059 106.21515557 105.8125 107.25 C106.833804 121.48790628 106.05965946 135.38462913 102.8125 149.25 C102.5123142 151.18619838 102.21991251 153.12362949 101.9375 155.0625 C100.88745609 160.93039245 98.41737118 165.93137236 95.8125 171.25 C95.35875 172.384375 94.905 173.51875 94.4375 174.6875 C91.05202757 182.10949726 86.90491589 188.89265854 81.8125 195.25 C81.03416466 197.43214568 81.03416466 197.43214568 80.8125 199.25 C82.17375 199.4046875 82.17375 199.4046875 83.5625 199.5625 C94.63630198 201.22132864 103.0684601 203.9262557 111.375 211.625 C113.36792349 215.26425159 113.58910937 218.1934553 112.8125 222.25 C110.4788815 226.81116344 106.51404415 229.17517941 101.98046875 231.3046875 C91.71414285 234.36812877 76.59852356 233.42743368 66.984375 228.92578125 C66.26765625 228.37277344 65.5509375 227.81976563 64.8125 227.25 C64.8125 225.93 64.8125 224.61 64.8125 223.25 C70.85119603 223.15414768 76.84898279 223.17177479 82.8125 224.25 C83.1425 224.58 83.4725 224.91 83.8125 225.25 C86.26534945 225.40385787 88.67070214 225.48163294 91.125 225.5 C91.80240234 225.520625 92.47980469 225.54125 93.17773438 225.5625 C96.32553209 225.58711621 98.4846839 225.43276009 101.2578125 223.88671875 C103.01503926 222.31431028 103.01503926 222.31431028 103.375 219.8125 C102.56036367 216.10137895 100.97967252 215.29546559 97.8125 213.25 C90.35882382 208.91129297 82.49161326 206.14789038 73.8125 207.25 C71.86307096 208.66776657 70.20910692 210.22884012 68.48828125 211.9140625 C66.8125 213.25 66.8125 213.25 63.375 213.625 C62.1065625 213.439375 62.1065625 213.439375 60.8125 213.25 C62.30657115 208.5187747 62.30657115 208.5187747 64.8125 207.1875 C65.4725 206.878125 66.1325 206.56875 66.8125 206.25 C67.52149017 204.9386819 68.17625976 203.59811742 68.8125 202.25 C70.09402765 199.97265324 71.38430535 197.70234573 72.6875 195.4375 C73.19603516 194.55094727 73.19603516 194.55094727 73.71484375 193.64648438 C74.40093622 192.45038781 75.08811502 191.25491374 75.77636719 190.06005859 C76.47619582 188.83750216 77.16940804 187.61113794 77.85644531 186.38134766 C79.25183654 183.8926123 80.59889205 181.51177445 82.40625 179.296875 C84.4737008 176.2875855 85.32817168 172.97372639 86.3125 169.5 C86.51230469 168.84128906 86.71210938 168.18257812 86.91796875 167.50390625 C90.55276147 154.97891987 92.305689 142.72468515 92.14868164 129.71289062 C92.12492174 127.61809998 92.12817944 125.52458088 92.13476562 123.4296875 C92.11114989 110.81999133 90.81658139 98.71747555 86.6875 86.75 C86.23225952 85.40953613 86.23225952 85.40953613 85.76782227 84.04199219 C82.97943919 76.15304685 79.34828196 69.27344795 74.8125 62.25 C74.07580078 61.02990234 74.07580078 61.02990234 73.32421875 59.78515625 C60.33272512 38.96217069 38.0620573 19.536401 14.1875 12.93359375 C11.96058983 12.29262454 9.84328471 11.53381392 7.6875 10.6875 C4.96240415 9.62404796 2.28819774 8.84377574 -0.5625 8.1875 C-4.1875 7.25 -4.1875 7.25 -6.1875 5.25 C-5.49074665 0.65142788 -4.49800926 0.08805238 0 0 Z " fill="#1A180D" transform="translate(331.1875,169.75)"/>
<path d="M0 0 C1.4540625 0.0309375 1.4540625 0.0309375 2.9375 0.0625 C4.70954967 15.98281927 -2.7445992 32.4552154 -12.46044922 44.84521484 C-17.36988714 50.87234992 -22.5107792 56.6189296 -28.0625 62.0625 C-28.77148438 62.78050781 -29.48046875 63.49851562 -30.2109375 64.23828125 C-38.89936616 72.57612419 -48.73919344 78.08733369 -60.375 81.125 C-63.49501198 81.93648097 -63.49501198 81.93648097 -66.0625 83.0625 C-67.93030262 86.178859 -67.93030262 86.178859 -68.0625 90.0625 C-70.47548287 99.29033146 -72.58394209 106.04728159 -81.0625 111.0625 C-86.28828924 113.95043616 -92.08977581 113.67055722 -97.8125 112.5 C-101.17857139 110.34945439 -103.31090519 107.59929627 -105.0625 104.0625 C-105.63751535 100.71148855 -105.54108118 97.51158625 -105.375 94.125 C-105.2203125 89.6390625 -105.2203125 89.6390625 -105.0625 85.0625 C-111.6625 85.0625 -118.2625 85.0625 -125.0625 85.0625 C-125.02125 87.5375 -124.98 90.0125 -124.9375 92.5625 C-124.88540231 99.64421729 -125.81217204 105.31151611 -128.0625 112.0625 C-133.36624057 114.71437028 -139.27537302 114.83411693 -145.0625 114.0625 C-157.62901295 109.66422047 -162.46139163 98.12595055 -168.0625 87.0625 C-168.3203125 86.29164063 -168.578125 85.52078125 -168.84375 84.7265625 C-170.88986975 81.93282207 -174.08798205 81.76862685 -177.3125 81.125 C-194.22365755 77.30678218 -208.41043546 70.77350842 -222.0625 60.0625 C-222.89652344 59.41925781 -223.73054688 58.77601563 -224.58984375 58.11328125 C-237.66728357 47.26706339 -252.04451407 26.28643629 -254.0625 9.0625 C-253.62109375 6.2578125 -253.62109375 6.2578125 -253.0625 4.0625 C-250.8125 3.6875 -250.8125 3.6875 -248.0625 4.0625 C-244.80937323 8.2143505 -243.06675486 12.48841607 -241.4375 17.4375 C-235.85792544 33.23673946 -227.07925422 45.65957514 -212.734375 54.3828125 C-210.46086147 55.81206808 -208.44749041 57.30349237 -206.375 59 C-197.79646187 65.55280531 -187.34810321 70.32003896 -176.80859375 72.4921875 C-174.0625 73.0625 -174.0625 73.0625 -170.70703125 74.1015625 C-165.61250158 75.4448147 -160.63480037 75.50981871 -155.390625 75.71875 C-152.0625 76.0625 -152.0625 76.0625 -149.0625 78.0625 C-149.9375 81.9375 -149.9375 81.9375 -151.0625 83.0625 C-153.39547433 83.10342937 -155.72955225 83.10491723 -158.0625 83.0625 C-155.45070057 92.28061565 -152.45097702 100.67909042 -144.0625 106.0625 C-140.47821853 106.56281206 -140.47821853 106.56281206 -137.0625 106.0625 C-134.96040143 102.90935215 -134.8190239 102.20146919 -134.8671875 98.61328125 C-134.87363281 97.76572266 -134.88007813 96.91816406 -134.88671875 96.04492188 C-134.90347656 95.16384766 -134.92023438 94.28277344 -134.9375 93.375 C-134.94652344 92.48232422 -134.95554687 91.58964844 -134.96484375 90.66992188 C-134.98840252 88.46717686 -135.02129671 86.26497412 -135.0625 84.0625 C-136.5475 83.5675 -136.5475 83.5675 -138.0625 83.0625 C-137.7325 81.4125 -137.4025 79.7625 -137.0625 78.0625 C-136.42973145 78.03744385 -135.79696289 78.0123877 -135.14501953 77.98657227 C-132.15912018 77.86749272 -129.17331336 77.74621605 -126.1875 77.625 C-125.10227051 77.58205811 -124.01704102 77.53911621 -122.89892578 77.49487305 C-117.81821829 77.28756584 -112.74450191 77.05970422 -107.671875 76.703125 C-106.8660498 76.64825928 -106.06022461 76.59339355 -105.22998047 76.53686523 C-103.74387799 76.43193595 -102.25840715 76.31745106 -100.77392578 76.19165039 C-96.41057935 75.88912084 -93.06968657 76.26932975 -89.0625 78.0625 C-88.125 80.125 -88.125 80.125 -88.0625 82.0625 C-90.03072886 84.03072886 -93.41058709 83.72498381 -96.0625 84.0625 C-96.28474251 86.64531836 -96.49073488 89.22772187 -96.6875 91.8125 C-96.75195312 92.54210937 -96.81640625 93.27171875 -96.8828125 94.0234375 C-97.30189287 99.37401135 -97.30189287 99.37401135 -95.0625 104.0625 C-91.93217764 105.62766118 -88.47176916 105.602837 -85.0625 105.0625 C-82.36006728 103.48830527 -81.23741285 102.51272884 -80.09277344 99.56640625 C-79.87137695 98.59574219 -79.64998047 97.62507813 -79.421875 96.625 C-79.15503906 95.56539063 -78.88820313 94.50578125 -78.61328125 93.4140625 C-78.08025919 91.18317017 -77.56196156 88.94870736 -77.05859375 86.7109375 C-75.01812754 78.76182269 -75.01812754 78.76182269 -72.21191406 76.70825195 C-70.16053209 75.93910371 -68.21411094 75.458565 -66.0625 75.0625 C-62.69732585 73.79797904 -59.3725926 72.46532589 -56.0625 71.0625 C-54.65291016 70.46695313 -54.65291016 70.46695313 -53.21484375 69.859375 C-34.81762394 61.42428607 -18.62240175 43.83814104 -11.39453125 24.9140625 C-10.8817424 23.50748138 -10.37524824 22.09858985 -9.875 20.6875 C-7.1775904 13.1775904 -7.1775904 13.1775904 -6.0625 12.0625 C-5.6926145 10.23619035 -5.36576536 8.40104626 -5.0625 6.5625 C-3.99346897 0.08149937 -3.99346897 0.08149937 0 0 Z " fill="#1D1A0F" transform="translate(395.0625,405.9375)"/>
<path d="M0 0 C1.27746094 0.0103125 2.55492187 0.020625 3.87109375 0.03125 C9.6062941 0.75952941 13.93811005 2.96951256 17.5625 7.5 C20.18554761 13.94257307 19.86751382 19.74760591 18.5625 26.5 C16.01417754 32.18698988 11.38169935 36.15447304 5.8125 38.8125 C-0.8094339 40.21329371 -7.09996645 38.52261709 -13.4375 36.5 C-13.28152344 37.11746094 -13.12554687 37.73492187 -12.96484375 38.37109375 C-11.32258375 45.51655615 -10.30496308 51.46724164 -13.8359375 58.14453125 C-18.12208679 64.32056494 -22.44303283 67.14200821 -29.703125 68.95703125 C-46.60767828 71.41491086 -46.60767828 71.41491086 -52.4375 68.5 C-52.4375 67.84 -52.4375 67.18 -52.4375 66.5 C-53.489375 66.438125 -54.54125 66.37625 -55.625 66.3125 C-60.29848041 65.31651237 -61.35781703 64.10548251 -64.4375 60.5 C-65.47003906 59.53707031 -65.47003906 59.53707031 -66.5234375 58.5546875 C-70.665679 54.49965109 -72.98096294 51.68752761 -73.125 45.75 C-72.49491012 38.31287357 -69.18360339 35.01713809 -63.86328125 30.1484375 C-57.23571871 25.64468324 -50.92198116 24.97643905 -43.125 25.0625 C-42.20162842 25.06717285 -41.27825684 25.0718457 -40.3269043 25.07666016 C-32.82255007 25.23923798 -24.99257844 25.94492156 -19.4375 31.5 C-19.51871094 30.46101563 -19.59992188 29.42203125 -19.68359375 28.3515625 C-20.1382561 19.98999063 -19.97462302 14.38104632 -14.45703125 7.61328125 C-13.79058594 6.91589844 -13.12414062 6.21851563 -12.4375 5.5 C-11.68726563 4.59636719 -10.93703125 3.69273437 -10.1640625 2.76171875 C-6.60922006 -0.18706889 -4.56566775 -0.11034847 0 0 Z " fill="#E7BDC3" transform="translate(216.4375,271.5)"/>
<path d="M0 0 C0.495 1.98 0.495 1.98 1 4 C-2.82989106 5.80230168 -5.78121808 6.19622241 -10 6 C-10 6.66 -10 7.32 -10 8 C-22.26179594 13.03540836 -22.26179594 13.03540836 -28.125 14 C-50.72257318 18.14469046 -69.23603885 37.37271928 -82.546875 54.82421875 C-84.45974041 57.32808048 -86.45678424 59.71656909 -88.5625 62.0625 C-90.81881771 64.78165211 -91.87536118 66.71259423 -93 70 C-93.99831684 71.66767541 -94.99859448 73.33417745 -96 75 C-103.09935507 88.44070608 -106.09300545 102.54633543 -106.23828125 117.6875 C-106.246353 118.50766602 -106.25442474 119.32783203 -106.26274109 120.17285156 C-106.27650782 121.90411312 -106.28726275 123.63540097 -106.29516602 125.36669922 C-106.30662827 127.1079932 -106.32698774 128.84925366 -106.35668945 130.59033203 C-106.55347641 142.16228467 -105.6542765 151.92707736 -102 163 C-101.70150146 163.9792041 -101.40300293 164.9584082 -101.09545898 165.96728516 C-97.04802265 179.14405643 -92.78043168 191.20365288 -84 202 C-83.5153125 202.64195312 -83.030625 203.28390625 -82.53125 203.9453125 C-79.11296487 208.29089839 -76.24092147 210.2180867 -71 212 C-71 212.66 -71 213.32 -71 214 C-69.35 214.66 -67.7 215.32 -66 216 C-66 217.32 -66 218.64 -66 220 C-69.21451269 221.60725635 -72.43612536 221.05748185 -76 221 C-76 220.34 -76 219.68 -76 219 C-76.70125 218.9175 -77.4025 218.835 -78.125 218.75 C-82.5117965 217.6056183 -85.9623257 215.55651145 -88.5 211.75 C-89.91247713 209.73373176 -89.91247713 209.73373176 -92.625 209.5 C-99.48245432 210.51591916 -107.03613859 214.03613859 -112 219 C-112.25005386 221.95817107 -112.25005386 221.95817107 -112 225 C-109.16992998 227.83007002 -106.38047148 227.35245926 -102.5859375 227.4140625 C-101.85629791 227.43342865 -101.12665833 227.4527948 -100.37490845 227.4727478 C-98.04172498 227.53258422 -95.70849227 227.57894423 -93.375 227.625 C-91.79424918 227.66317614 -90.21351924 227.70222765 -88.6328125 227.7421875 C-84.7553777 227.83828878 -80.87784551 227.92230412 -77 228 C-77.25 230.375 -77.25 230.375 -78 233 C-82.29848053 236.15201866 -88.01096875 235.58916572 -93.125 235.8125 C-94.61773437 235.90821289 -94.61773437 235.90821289 -96.140625 236.00585938 C-104.18681172 236.37875706 -110.91899267 235.16543246 -118.0625 231.375 C-120.88261846 227.9180806 -121.2896271 224.40381724 -121 220 C-120.12089849 216.40013497 -119.23026981 215.18038352 -116.27734375 212.8671875 C-115.17519531 212.20976562 -114.07304688 211.55234375 -112.9375 210.875 C-112.35911377 210.52953125 -111.78072754 210.1840625 -111.18481445 209.828125 C-106.58146464 207.15574688 -102.11940638 205.38831359 -97 204 C-97.73191669 200.6112257 -99.08614484 198.07587979 -100.83203125 195.08203125 C-105.21919083 187.26144244 -108.0010555 179.17655071 -110.38842773 170.57470703 C-111.13707534 166.99874074 -111.13707534 166.99874074 -113 164 C-118.93497332 141.37291423 -117.99328192 114.51515195 -112 92 C-111.71511719 90.81664062 -111.43023437 89.63328125 -111.13671875 88.4140625 C-109.37156947 81.37156947 -109.37156947 81.37156947 -107 79 C-106.28269778 77.07471926 -105.56780566 75.14847142 -104.87060547 73.21582031 C-103.43925632 69.57282399 -101.54362492 66.24358207 -99.5625 62.875 C-99.13219482 62.14289307 -98.70188965 61.41078613 -98.25854492 60.65649414 C-93.98343689 53.61168378 -88.86504449 47.51493933 -83.31738281 41.44824219 C-81.56527561 39.5220932 -79.87882248 37.54202989 -78.1875 35.5625 C-77.12840311 34.37196387 -76.06610593 33.18426376 -75 32 C-74.49855469 31.42121094 -73.99710938 30.84242188 -73.48046875 30.24609375 C-68.99783062 25.37081579 -63.72824189 22.19111094 -58.07421875 18.8515625 C-55.68536582 17.41278704 -53.50992279 15.95156729 -51.3125 14.25 C-44.30533284 9.11048388 -35.27628874 7.06578231 -27 4.875 C-26.07960938 4.62363281 -25.15921875 4.37226563 -24.2109375 4.11328125 C-7.46101132 -0.39268481 -7.46101132 -0.39268481 0 0 Z " fill="#1E1C0F" transform="translate(216,168)"/>
<path d="M0 0 C1.32 0 2.64 0 4 0 C4 175.56 4 351.12 4 532 C2.68 532 1.36 532 0 532 C0 356.44 0 180.88 0 0 Z " fill="#000000" transform="translate(0,3)"/>
<path d="M0 0 C1 2 1 2 1 5 C1.61875 5.53625 2.2375 6.0725 2.875 6.625 C7.85820052 12.1944594 7.30173906 20.91996094 7.34375 28.03515625 C7.35764771 28.97968155 7.37154541 29.92420685 7.38586426 30.89735413 C7.41544811 32.91176494 7.44136103 34.92623254 7.46386719 36.94073486 C7.69629744 57.02200216 8.48474346 76.97612156 10 97 C10.12375 98.80162598 10.12375 98.80162598 10.25 100.63964844 C10.37375 102.39196777 10.37375 102.39196777 10.5 104.1796875 C10.5721875 105.22624512 10.644375 106.27280273 10.71875 107.35107422 C10.91525105 110.10291432 10.91525105 110.10291432 12 113 C12.09627338 115.69848628 12.13931086 118.36490376 12.125 121.0625 C12.13080078 122.16174805 12.13080078 122.16174805 12.13671875 123.28320312 C12.12668491 128.74663018 12.12668491 128.74663018 11 131 C10.01 131 9.02 131 8 131 C8 131.66 8 132.32 8 133 C1.25 132.125 1.25 132.125 -1 131 C-1 132.32 -1 133.64 -1 135 C-1.66 135 -2.32 135 -3 135 C-3.12117187 133.87722656 -3.24234375 132.75445312 -3.3671875 131.59765625 C-4.47822468 121.38327494 -4.47822468 121.38327494 -6.49609375 111.3203125 C-7.44072561 106.97061231 -7.94816514 102.54642883 -8.53515625 98.13671875 C-8.90661668 95.18849981 -8.90661668 95.18849981 -9.51898193 93.1242981 C-10.07774745 90.6566475 -10.14185228 88.40495331 -10.16113281 85.87451172 C-10.17074036 84.85179169 -10.1803479 83.82907166 -10.19024658 82.77536011 C-10.19449646 81.67128815 -10.19874634 80.56721619 -10.203125 79.4296875 C-10.20882507 78.27945099 -10.21452515 77.12921448 -10.22039795 75.94412231 C-10.22985037 73.50133177 -10.23638289 71.05852845 -10.24023438 68.61572266 C-10.24983661 64.93758628 -10.28081442 61.26003401 -10.3125 57.58203125 C-10.40335936 37.28301753 -8.82452235 18.54493528 0 0 Z " fill="#E7BCC3" transform="translate(229,34)"/>
<path d="M0 0 C2.12109375 1.68359375 2.12109375 1.68359375 3.9375 3.4375 C4.56785156 3.94410156 5.19820313 4.45070313 5.84765625 4.97265625 C8.64663129 7.56760577 9.78676776 9.50777343 10.40234375 13.3046875 C10.58722387 19.2356416 10.22016874 24.36428467 6.9375 29.4375 C1.60996617 34.82018429 -3.51905543 37.84606074 -11.0625 38.4375 C-11.71460449 38.4905127 -12.36670898 38.54352539 -13.03857422 38.59814453 C-23.28070395 39.32082522 -31.74965711 39.24017643 -40.0625 32.4375 C-45.79491385 27.04940321 -48.74071267 23.42766289 -49.375 15.5625 C-49.29348499 11.16884106 -47.97422698 8.79718498 -45.0625 5.4375 C-34.42215735 -4.2656104 -12.58596615 -7.19747912 0 0 Z " fill="#E5BBC2" transform="translate(382.0625,302.5625)"/>
<path d="M0 0 C3.89631925 1.4779142 5.06283164 3.38361521 7 7 C12.71653221 20.87737475 11.84959838 36.26835372 12 51 C12.01514648 52.14597656 12.03029297 53.29195312 12.04589844 54.47265625 C12.13594624 61.98396071 12.1109581 69.48908089 12 77 C11.98743164 78.00337402 11.97486328 79.00674805 11.96191406 80.04052734 C11.77385156 91.84049017 10.87409481 103.38655379 9.125 115.0625 C8.96354492 116.15111328 8.80208984 117.23972656 8.63574219 118.36132812 C7.92906793 122.73310325 7.24992427 126.82662558 5.41015625 130.875 C3.96972715 134.06708665 3.52680212 136.46580563 3.3125 139.9375 C3.24675781 140.89527344 3.18101562 141.85304687 3.11328125 142.83984375 C3.07589844 143.55269531 3.03851563 144.26554688 3 145 C2.67 145 2.34 145 2 145 C2 143.35 2 141.7 2 140 C0.88625 139.8453125 0.88625 139.8453125 -0.25 139.6875 C-3.24719216 138.93820196 -4.78499781 138.13589497 -7 136 C-8.00440687 132.99982365 -8.13470391 130.21141944 -8.125 127.0625 C-8.12757813 126.22847656 -8.13015625 125.39445312 -8.1328125 124.53515625 C-8 122 -8 122 -7.5234375 119.6328125 C-6.63504517 115.16433168 -6.54754028 110.62323155 -6.28125 106.08203125 C-6 103 -6 103 -5 101 C-3.86809732 93.09536953 -3.82769254 85.10194535 -3.75390625 77.1328125 C-3.7209747 74.6757776 -3.68776294 72.21874643 -3.65429688 69.76171875 C-3.60697237 65.94191975 -3.56247056 62.12213667 -3.52319336 58.30224609 C-3.48314505 54.57895261 -3.43169965 50.8559442 -3.37890625 47.1328125 C-3.3704921 46.00948517 -3.36207794 44.88615784 -3.35340881 43.72879028 C-3.03333055 22.8670477 -3.03333055 22.8670477 1.5 17.1875 C4 15 4 15 6 15 C4.68053184 8.74183278 4.68053184 8.74183278 2 3 C1.34 2.67 0.68 2.34 0 2 C0 1.34 0 0.68 0 0 Z " fill="#E6BCC2" transform="translate(307,27)"/>
<path d="M0 0 C177.54 0 355.08 0 538 0 C538 0.99 538 1.98 538 3 C360.46 3 182.92 3 0 3 C0 2.01 0 1.02 0 0 Z " fill="#202124" transform="translate(0,535)"/>
<path d="M0 0 C0.03738281 0.68707031 0.07476562 1.37414062 0.11328125 2.08203125 C0.21189453 3.43361328 0.21189453 3.43361328 0.3125 4.8125 C0.37050781 5.70582031 0.42851562 6.59914063 0.48828125 7.51953125 C1.07445 10.36088358 1.64230033 11.34087801 4 13 C7.62535976 13.2503577 7.62535976 13.2503577 11 13 C11.33 12.34 11.66 11.68 12 11 C12.66 11 13.32 11 14 11 C14 9.35 14 7.7 14 6 C16.375 5.375 16.375 5.375 19 5 C19.66 5.66 20.32 6.32 21 7 C20.91047997 12.46072169 20.91047997 12.46072169 20 15 C18.75089844 16.11181641 18.75089844 16.11181641 17.4765625 17.24609375 C14.26148421 20.82122024 14.37976359 23.68028859 14.4375 28.25 C14.27437043 34.95042253 13.75632909 40.25149638 10 46 C9.56558594 46.68964844 9.13117188 47.37929688 8.68359375 48.08984375 C5.9790698 51.81132766 4.74413859 52.88188276 0.0625 53.625 C-5.47932895 53.07504751 -9.63428439 51.30219395 -13.6875 47.4375 C-20.02570258 38.85364287 -20.54045917 30.41885185 -20 20 C-20.75667969 19.90074219 -21.51335937 19.80148437 -22.29296875 19.69921875 C-26.60540828 18.58532744 -28.73961224 15.72433017 -31 12 C-31.4375 8.625 -31.4375 8.625 -31 6 C-30 5 -30 5 -27.6875 4.5625 C-26.800625 4.706875 -25.91375 4.85125 -25 5 C-24.1028125 6.4540625 -24.1028125 6.4540625 -23.1875 7.9375 C-21.3989256 11.06485233 -21.3989256 11.06485233 -19.11328125 11.65625 C-15.58756256 12.12547689 -12.38614925 12.26980597 -9 11 C-9.103125 9.741875 -9.20625 8.48375 -9.3125 7.1875 C-9.31640625 4.98046875 -9.31640625 4.98046875 -9 3 C-5.80434964 0.15942191 -4.3252957 0 0 0 Z " fill="#1D1B13" transform="translate(271,317)"/>
<path d="M0 0 C1.27746094 0.0103125 2.55492187 0.020625 3.87109375 0.03125 C9.6062941 0.75952941 13.93811005 2.96951256 17.5625 7.5 C20.18554761 13.94257307 19.86751382 19.74760591 18.5625 26.5 C16.01417754 32.18698988 11.38169935 36.15447304 5.8125 38.8125 C-0.16623272 40.07723192 -5.32292181 39.43356631 -10.6875 36.4375 C-15.58872023 33.00664584 -18.63892902 28.98519191 -19.984375 23.11328125 C-20.50899104 16.68673478 -18.27388595 12.85514923 -14.45703125 7.82421875 C-13.79058594 7.05722656 -13.12414062 6.29023438 -12.4375 5.5 C-11.68726563 4.58863281 -10.93703125 3.67726563 -10.1640625 2.73828125 C-6.60788283 -0.18104676 -4.5495512 -0.10995894 0 0 Z " fill="#1C1B13" transform="translate(216.4375,271.5)"/>
<path d="M0 0 C1.20269531 0.01498535 1.20269531 0.01498535 2.4296875 0.03027344 C6.81833201 0.21223284 10.07395133 0.52667277 13.5625 3.4375 C17.43990398 7.70264437 18.33898855 11.39685069 18.3125 17.125 C18.32023437 18.79369141 18.32023437 18.79369141 18.328125 20.49609375 C17.919635 25.403981 16.92591438 27.88295478 13.3125 31.25 C12.23702888 32.07287863 11.1535954 32.88545374 10.0625 33.6875 C9.093125 34.450625 8.12375 35.21375 7.125 36 C3.32411442 38.09436552 1.35489583 38.2795546 -2.9375 37.6875 C-9.47696501 35.61968498 -14.36958222 31.51704872 -17.9375 25.6875 C-19.77130065 21.0826228 -20.65656863 16.9680755 -19.140625 12.16015625 C-14.70540135 3.5057101 -9.60588037 -0.23419295 0 0 Z " fill="#1D1C14" transform="translate(317.9375,276.3125)"/>
<path d="M0 0 C13.38097461 6.65203623 28.37039126 20.98083426 34.09375 34.8515625 C36.31195577 41.55108276 38.26326462 48.75950588 37.09375 55.8515625 C35.59375 58.4140625 35.59375 58.4140625 34.09375 59.8515625 C32.44375 59.5215625 30.79375 59.1915625 29.09375 58.8515625 C28.701875 57.6553125 28.31 56.4590625 27.90625 55.2265625 C27.6278125 54.40671875 27.349375 53.586875 27.0625 52.7421875 C26.37057259 50.6775654 25.70698248 48.60335824 25.0625 46.5234375 C22.31322012 38.0898357 18.66152224 31.72391736 13.09375 24.8515625 C10.09375 21.09819927 10.09375 21.09819927 10.09375 18.8515625 C9.54589844 18.59246094 8.99804688 18.33335937 8.43359375 18.06640625 C5.73120841 16.66333139 3.21506085 15.0643358 0.65625 13.4140625 C-1.19496792 12.22197085 -3.04907814 11.03435706 -4.90625 9.8515625 C-5.74671875 9.30757812 -6.5871875 8.76359375 -7.453125 8.203125 C-16.11070785 3.43318286 -27.32325675 4.63513354 -36.90625 4.8515625 C-37.23625 3.2015625 -37.56625 1.5515625 -37.90625 -0.1484375 C-26.46976817 -7.32426924 -12.08395966 -4.77511309 0 0 Z " fill="#1A1910" transform="translate(339.90625,208.1484375)"/>
<path d="M0 0 C0.55816406 0.54914063 1.11632812 1.09828125 1.69140625 1.6640625 C1.69140625 2.6540625 1.69140625 3.6440625 1.69140625 4.6640625 C-1.01051714 6.01502419 -3.29014248 5.81439666 -6.30859375 5.9140625 C-17.12547443 6.70031154 -24.14315071 11.96013845 -32.30859375 18.6640625 C-36.04831978 21.6640625 -36.04831978 21.6640625 -38.30859375 21.6640625 C-38.57671875 22.2415625 -38.84484375 22.8190625 -39.12109375 23.4140625 C-40.30859375 25.6640625 -40.30859375 25.6640625 -41.72265625 27.328125 C-43.82910049 30.43072021 -44.81239821 33.7309809 -45.87109375 37.2890625 C-46.08725342 37.99675781 -46.30341309 38.70445312 -46.52612305 39.43359375 C-48.12722997 44.7832032 -49.42005439 50.1471614 -50.30859375 55.6640625 C-52.30814121 55.70660606 -54.30901011 55.70487033 -56.30859375 55.6640625 C-57.30859375 54.6640625 -57.30859375 54.6640625 -57.55859375 51.4140625 C-57.26606577 35.03249558 -50.23585716 23.00783973 -38.95410156 11.82666016 C-29.76272517 3.00777888 -12.9347671 -7.48509365 0 0 Z " fill="#211F16" transform="translate(224.30859375,203.3359375)"/>
<path d="M0 0 C2.25 -0.375 2.25 -0.375 5 0 C8.2527411 4.15135829 9.99748873 8.42559896 11.625 13.375 C15.29453565 23.85798074 21.20995575 33.24150644 28 42 C27.01 42 26.02 42 25 42 C24.34 43.32 23.68 44.64 23 46 C23 45.34 23 44.68 23 44 C22.34 44 21.68 44 21 44 C21 43.34 21 42.68 21 42 C19.515 42.495 19.515 42.495 18 43 C13.10642238 35.75025538 8.5129207 28.43690135 4.5625 20.625 C4.0684668 19.66400391 4.0684668 19.66400391 3.56445312 18.68359375 C0.66930492 12.82076753 -2.04137588 6.5324028 0 0 Z " fill="#252215" transform="translate(142,410)"/>
<path d="M0 0 C2.125 0.375 2.125 0.375 4 1 C4.33 3.31 4.66 5.62 5 8 C5.99 8 6.98 8 8 8 C8.66 6.02 9.32 4.04 10 2 C13.875 2.875 13.875 2.875 15 4 C15.84251592 11.55023884 14.197936 16.703096 10 23 C7.29837112 22.9228106 5.56550821 22.56711477 3.625 20.62109375 C-0.58778079 15.01659073 -2.65894523 9.08366124 -2 2 C-1.34 1.34 -0.68 0.68 0 0 Z " fill="#DEB6BE" transform="translate(262,340)"/>
<path d="M0 0 C0.33 0 0.66 0 1 0 C0.88118872 4.4475913 0.75690603 8.89498695 0.62768555 13.34228516 C0.58453646 14.85331126 0.54284844 16.36437986 0.50268555 17.87548828 C0.44449437 20.05514294 0.38094448 22.23458763 0.31640625 24.4140625 C0.27974854 25.7232666 0.24309082 27.0324707 0.20532227 28.38134766 C0.01876472 31.66928568 -0.43702194 34.76067701 -1 38 C-1.13751836 39.87031508 -1.24271295 41.74327205 -1.31640625 43.6171875 C-1.35830078 44.63554687 -1.40019531 45.65390625 -1.44335938 46.703125 C-1.48267578 47.74984375 -1.52199219 48.7965625 -1.5625 49.875 C-1.60568359 50.94492188 -1.64886719 52.01484375 -1.69335938 53.1171875 C-1.79892817 55.74467754 -1.90103791 58.37225422 -2 61 C-3.32 61 -4.64 61 -6 61 C-5.67 41.86 -5.34 22.72 -5 3 C-4.67 3 -4.34 3 -4 3 C-3.67 5.97 -3.34 8.94 -3 12 C-2.01 8.04 -1.02 4.08 0 0 Z " fill="#E6C767" transform="translate(271,103)"/>
<path d="M0 0 C1.98828125 0.50390625 1.98828125 0.50390625 3.98828125 3.50390625 C3.98828125 7.73918455 3.24604086 9.22159811 0.36328125 12.37890625 C-3.51762075 14.82243714 -5.51016279 15.10988494 -10.01171875 14.50390625 C-12.01171875 12.50390625 -12.01171875 12.50390625 -12.44921875 9.75390625 C-11.98545505 6.30880446 -11.07562928 4.22527812 -8.71484375 1.640625 C-5.91733834 -0.22651737 -3.27931107 -0.08267171 0 0 Z " fill="#E8E7E6" transform="translate(220.01171875,279.49609375)"/>
<path d="M0 0 C2.6875 0.3125 2.6875 0.3125 5 1 C4.70540991 4.53508103 4.25118587 5.76203444 1.625 8.25 C-1.94555876 10.6303725 -4.49399787 11.12327539 -8.6875 11.0625 C-9.89986328 11.04896484 -9.89986328 11.04896484 -11.13671875 11.03515625 C-12.05904297 11.01775391 -12.05904297 11.01775391 -13 11 C-13.66 9.35 -14.32 7.7 -15 6 C-15.66 6 -16.32 6 -17 6 C-16.67 4.35 -16.34 2.7 -16 1 C-13.6875 0.8125 -13.6875 0.8125 -11 1 C-10.505 1.515625 -10.01 2.03125 -9.5 2.5625 C-8.7575 3.2740625 -8.7575 3.2740625 -8 4 C-5.02927734 3.85146387 -3.54267759 3.58790072 -1.5 1.375 C-1.005 0.92125 -0.51 0.4675 0 0 Z " fill="#232117" transform="translate(276,377)"/>
<path d="M0 0 C-0.48028356 4.56269384 -0.48028356 4.56269384 -2.52734375 6.28515625 C-6.20721966 7.34900663 -9.7487688 7.40853495 -13.5625 7.4375 C-14.71395508 7.48680664 -14.71395508 7.48680664 -15.88867188 7.53710938 C-18.12890625 7.55859375 -18.12890625 7.55859375 -22 7 C-25 3.35260116 -25 3.35260116 -25 1 C-16.64380043 0.24524649 -8.39004715 -0.13605482 0 0 Z " fill="#100F06" transform="translate(139,396)"/>
<path d="M0 0 C2.4375 1.625 2.4375 1.625 4 4 C4.25 7.25 4.25 7.25 4 10 C-0.1205746 11.99785435 -3.45194365 12.17835515 -8 12 C-10.08466413 8.61242079 -10.42905061 5.94726562 -10 2 C-6.2794164 -0.48038907 -4.40203429 -0.46337203 0 0 Z " fill="#ECEBEA" transform="translate(321,284)"/>
<path d="M0 0 C1.4540625 0.0309375 1.4540625 0.0309375 2.9375 0.0625 C2.3107354 4.44985223 0.72687072 7.89336149 -1.3125 11.8125 C-1.89515625 12.96234375 -2.4778125 14.1121875 -3.078125 15.296875 C-5.0625 18.0625 -5.0625 18.0625 -7.671875 19.015625 C-10.0625 19.0625 -10.0625 19.0625 -12.0625 18.0625 C-11.47718513 13.67263844 -9.83205241 10.58888639 -7.5625 6.8125 C-6.9334375 5.75546875 -6.304375 4.6984375 -5.65625 3.609375 C-3.44157419 0.07023621 -3.44157419 0.07023621 0 0 Z " fill="#2B2220" transform="translate(159.0625,303.9375)"/>
<path d="M0 0 C6.03869603 -0.09585232 12.03648279 -0.07822521 18 1 C18.33 1.33 18.66 1.66 19 2 C21.34987262 2.23527773 23.70556039 2.41386417 26.0625 2.5625 C27.35285156 2.64628906 28.64320313 2.73007812 29.97265625 2.81640625 C31.47119141 2.90728516 31.47119141 2.90728516 33 3 C33 3.33 33 3.66 33 4 C32.31292969 4.04898437 31.62585938 4.09796875 30.91796875 4.1484375 C30.01691406 4.22320312 29.11585938 4.29796875 28.1875 4.375 C27.29417969 4.44460938 26.40085937 4.51421875 25.48046875 4.5859375 C22.75601501 4.86645036 22.75601501 4.86645036 20 7 C15.40852645 8.70054576 10.25621839 8.8786973 5.703125 7.10546875 C3.75914853 6.13003375 1.86818677 5.11296233 0 4 C0 2.68 0 1.36 0 0 Z " fill="#120F07" transform="translate(396,393)"/>
<path d="M0 0 C0.33 0 0.66 0 1 0 C1.06058594 0.84304688 1.12117188 1.68609375 1.18359375 2.5546875 C1.26738281 3.65039062 1.35117187 4.74609375 1.4375 5.875 C1.51871094 6.96554687 1.59992188 8.05609375 1.68359375 9.1796875 C1.83001703 11.94728971 1.83001703 11.94728971 3 14 C3.66 13.34 4.32 12.68 5 12 C5 12.66 5 13.32 5 14 C5.66 14 6.32 14 7 14 C7 16.75 7 16.75 6 20 C2.38185093 22.97752916 -1.67009558 24.23744728 -6.3125 24.375 C-10 24 -10 24 -13 22 C-11.68 22 -10.36 22 -9 22 C-9 21.01 -9 20.02 -9 19 C-7.35 19 -5.7 19 -4 19 C-3.690625 18.21625 -3.38125 17.4325 -3.0625 16.625 C-2 14 -2 14 -1 12 C-0.77141886 9.9625237 -0.58975722 7.91959697 -0.4375 5.875 C-0.35371094 4.77929688 -0.26992188 3.68359375 -0.18359375 2.5546875 C-0.12300781 1.71164062 -0.06242187 0.86859375 0 0 Z " fill="#151309" transform="translate(262,495)"/>
<path d="M0 0 C1.67542976 0.28604898 3.34385343 0.61781233 5 1 C4.4618755 5.12562117 3.81675492 9.22051859 3.0625 13.3125 C2.90910156 14.15425781 2.75570313 14.99601562 2.59765625 15.86328125 C2 18 2 18 0 20 C-2.625 19.625 -2.625 19.625 -5 19 C-3.79310345 3.79310345 -3.79310345 3.79310345 0 0 Z " fill="#271E1C" transform="translate(358,306)"/>
<path d="M0 0 C1.65 0.33 3.3 0.66 5 1 C4.48914188 7.43681228 3.27057103 12.95942424 1 19 C-0.98 18.67 -2.96 18.34 -5 18 C-4.56699236 11.18012971 -3.09212176 6.08356979 0 0 Z " fill="#2D2221" transform="translate(371,307)"/>
<path d="M0 0 C1.65 0 3.3 0 5 0 C6.34382861 4.45194753 5.5918085 7.01305424 3.8125 11.25 C3.38582031 12.30703125 2.95914063 13.3640625 2.51953125 14.453125 C1 17 1 17 -1.05078125 17.984375 C-1.69402344 17.98953125 -2.33726562 17.9946875 -3 18 C-3.66 17.34 -4.32 16.68 -5 16 C-4.75722719 10.0520662 -2.58423281 5.30068219 0 0 Z " fill="#2C2220" transform="translate(170,306)"/>
<path d="M0 0 C2.625 0.375 2.625 0.375 5 1 C4.5188509 6.77378925 2.81532819 10.95859836 0 16 C-1.32 16 -2.64 16 -4 16 C-5 15 -5 15 -5.25 11.8125 C-4.9241609 6.84345371 -3.52537732 3.52537732 0 0 Z " fill="#302623" transform="translate(183,309)"/>
<path d="M0 0 C-0.42335385 6.49142565 -2.91099799 11.33492989 -6 17 C-7.65 16.67 -9.3 16.34 -11 16 C-11.62816396 10.97468835 -9.60306782 7.16142615 -7 3 C-4.53412019 -0.09797858 -4.30388272 0 0 0 Z " fill="#1C1512" transform="translate(350,306)"/>
<path d="M0 0 C1.010625 0.804375 2.02125 1.60875 3.0625 2.4375 C6.75545309 5.10547019 9.49377556 5.72410871 14 6 C14 6.33 14 6.66 14 7 C12.35 7 10.7 7 9 7 C8.67 8.32 8.34 9.64 8 11 C13.52677733 11.19392201 17.75614911 10.7479503 23 9 C23 9.66 23 10.32 23 11 C16.90544174 13.63548465 9.82823439 14.38225104 3.51171875 12.1015625 C1.62680059 11.15742943 -0.19528626 10.08963849 -2 9 C-1.34 8.67 -0.68 8.34 0 8 C-0.66 6.02 -1.32 4.04 -2 2 C-1.34 2 -0.68 2 0 2 C0 1.34 0 0.68 0 0 Z " fill="#37311B" transform="translate(244,507)"/>
<path d="M0 0 C0.33 0 0.66 0 1 0 C1.33 13.86 1.66 27.72 2 42 C2.33 42 2.66 42 3 42 C3 47.28 3 52.56 3 58 C1.68 58 0.36 58 -1 58 C-0.67 38.86 -0.34 19.72 0 0 Z " fill="#CCB25F" transform="translate(266,106)"/>
<path d="M0 0 C2.61328125 -0.125 2.61328125 -0.125 5 0 C4.88570603 1.77155654 4.75816963 3.54226229 4.625 5.3125 C4.55539062 6.29863281 4.48578125 7.28476562 4.4140625 8.30078125 C4 11 4 11 2 14 C0.35 13.67 -1.3 13.34 -3 13 C-3.36047431 5.91067194 -3.36047431 5.91067194 -1.8125 2 C-1.214375 1.34 -0.61625 0.68 0 0 Z " fill="#201916" transform="translate(382,311)"/>
<path d="M0 0 C2.625 0.375 2.625 0.375 5 1 C5.68041782 6.27323808 3.24786337 10.39388711 1 15 C-0.32 15 -1.64 15 -3 15 C-2.88623383 12.87436897 -2.75864369 10.7494739 -2.625 8.625 C-2.55539063 7.44164062 -2.48578125 6.25828125 -2.4140625 5.0390625 C-2 2 -2 2 0 0 Z " fill="#221B18" transform="translate(193,311)"/>
<path d="M0 0 C0.33 0 0.66 0 1 0 C1.14276473 18.10696 0.77708613 34.49142386 -4 52 C-4.66 52 -5.32 52 -6 52 C-6 53.65 -6 55.3 -6 57 C-6.66 56.67 -7.32 56.34 -8 56 C-7.7009375 55.15695312 -7.401875 54.31390625 -7.09375 53.4453125 C-5.18187491 47.42290595 -4.17420931 41.19932011 -3 35 C-2.80148437 34.06414062 -2.60296875 33.12828125 -2.3984375 32.1640625 C-0.32161165 21.59394886 -0.33571244 10.73733945 0 0 Z " fill="#C3A958" transform="translate(437,280)"/>
<path d="M0 0 C0.66 0 1.32 0 2 0 C1.49325222 3.34136817 0.85851427 6.58421817 0.0625 9.87109375 C-3.64752565 25.46707074 -3.82133878 41.04986563 -4 57 C-4.33 57 -4.66 57 -5 57 C-5.04953293 51.67978261 -5.08578256 46.35970024 -5.10986328 41.03930664 C-5.11990487 39.23036357 -5.1335408 37.42143667 -5.15087891 35.61254883 C-5.17520832 33.00858565 -5.18650161 30.40483758 -5.1953125 27.80078125 C-5.21079636 26.59268547 -5.21079636 26.59268547 -5.22659302 25.36018372 C-5.22744522 21.07039215 -4.88690672 17.93666092 -3 14 C-2.4176812 11.57189089 -1.8778743 9.13329772 -1.375 6.6875 C-1.11460938 5.43324219 -0.85421875 4.17898438 -0.5859375 2.88671875 C-0.39257812 1.93410156 -0.19921875 0.98148438 0 0 Z " fill="#BCA354" transform="translate(104,254)"/>
<path d="M0 0 C0.66 0 1.32 0 2 0 C2.66 1.98 3.32 3.96 4 6 C4.99 6 5.98 6 7 6 C7.66 6 8.32 6 9 6 C9 9.63 9 13.26 9 17 C7.68 16.67 6.36 16.34 5 16 C4.0234375 14.1796875 4.0234375 14.1796875 3.375 11.875 C3.13910156 11.06933594 2.90320313 10.26367188 2.66015625 9.43359375 C2.44230469 8.63050781 2.22445312 7.82742187 2 7 C1.60430601 5.64579261 1.20849033 4.29162077 0.8125 2.9375 C0.544375 1.968125 0.27625 0.99875 0 0 Z " fill="#252010" transform="translate(217,152)"/>
<path d="M0 0 C1.47906892 -0.02689216 2.95827483 -0.04634621 4.4375 -0.0625 C5.26121094 -0.07410156 6.08492188 -0.08570313 6.93359375 -0.09765625 C9 0 9 0 10 1 C12.34987262 1.23527773 14.70556039 1.41386417 17.0625 1.5625 C18.35285156 1.64628906 19.64320313 1.73007812 20.97265625 1.81640625 C22.47119141 1.90728516 22.47119141 1.90728516 24 2 C24 2.33 24 2.66 24 3 C22.96939453 3.07347656 22.96939453 3.07347656 21.91796875 3.1484375 C20.56638672 3.26058594 20.56638672 3.26058594 19.1875 3.375 C18.29417969 3.44460938 17.40085937 3.51421875 16.48046875 3.5859375 C13.75601501 3.86645036 13.75601501 3.86645036 11 6 C7.11872527 7.43750916 3.07907991 7.06798467 -1 7 C-1 6.67 -1 6.34 -1 6 C0.65 5.67 2.3 5.34 4 5 C4 4.01 4 3.02 4 2 C2.68 1.34 1.36 0.68 0 0 Z " fill="#2A2619" transform="translate(405,394)"/>
<path d="M0 0 C-0.33 1.32 -0.66 2.64 -1 4 C-2.95565258 4.38873828 -4.91466504 4.76060833 -6.875 5.125 C-7.96554688 5.33382812 -9.05609375 5.54265625 -10.1796875 5.7578125 C-11.57574219 5.87769531 -11.57574219 5.87769531 -13 6 C-13.66 5.34 -14.32 4.68 -15 4 C-15 3.34 -15 2.68 -15 2 C-9.92523206 0.73694665 -5.27203646 -0.27036084 0 0 Z " fill="#141209" transform="translate(217,169)"/>
<path d="M0 0 C0.33 0 0.66 0 1 0 C1.18175781 0.62648437 1.36351562 1.25296875 1.55078125 1.8984375 C1.92783203 3.12433594 1.92783203 3.12433594 2.3125 4.375 C2.67794922 5.59316406 2.67794922 5.59316406 3.05078125 6.8359375 C3.91368185 9.33184629 3.91368185 9.33184629 7 11 C5.865625 11.12375 4.73125 11.2475 3.5625 11.375 C1.7990625 11.684375 1.7990625 11.684375 0 12 C-0.33 12.66 -0.66 13.32 -1 14 C-1.66 13.67 -2.32 13.34 -3 13 C-3 12.01 -3 11.02 -3 10 C-6.3 10 -9.6 10 -13 10 C-10.16142577 7.16142577 -6.86673652 7.09953975 -3 7 C-2.01 7.33 -1.02 7.66 0 8 C0 5.36 0 2.72 0 0 Z " fill="#CBB467" transform="translate(219,159)"/>
<path d="M0 0 C2.07384637 2.28176413 2.98397191 3.44323483 3.07421875 6.578125 C2.88279297 7.90070313 2.88279297 7.90070313 2.6875 9.25 C2.56761719 10.14203125 2.44773438 11.0340625 2.32421875 11.953125 C2.21722656 12.62859375 2.11023438 13.3040625 2 14 C1.01 13.67 0.02 13.34 -1 13 C-1.66 13.66 -2.32 14.32 -3 15 C-3.99 14.67 -4.98 14.34 -6 14 C-5.73445312 13.49210937 -5.46890625 12.98421875 -5.1953125 12.4609375 C-3.10022511 8.37781098 -1.32380814 4.4126938 0 0 Z " fill="#C5A5AB" transform="translate(188,311)"/>
<path d="M0 0 C0.66 0.33 1.32 0.66 2 1 C1.38511719 1.65355469 1.38511719 1.65355469 0.7578125 2.3203125 C-2.61090002 6.04362634 -4.78240479 9.00785965 -6 14 C-5.34 14 -4.68 14 -4 14 C-4.33 16.64 -4.66 19.28 -5 22 C-7 21 -7 21 -7.625 19.4375 C-8.44867239 14.0836295 -8.7830148 10.48213516 -6.25 5.6875 C-4.28627634 3.34194118 -2.55931192 1.64527195 0 0 Z " fill="#EECCC6" transform="translate(341,305)"/>
<path d="M0 0 C2.125 0.375 2.125 0.375 4 1 C4.33 3.64 4.66 6.28 5 9 C4.34 9 3.68 9 3 9 C2.67 8.34 2.34 7.68 2 7 C1.01 7.66 0.02 8.32 -1 9 C-2 8 -2 8 -2.1875 5.0625 C-2 2 -2 2 0 0 Z " fill="#BF9FA4" transform="translate(262,340)"/>
<path d="M0 0 C-0.375 1.9375 -0.375 1.9375 -1 4 C-4.21451269 5.60725635 -7.43612536 5.05748185 -11 5 C-11 4.01 -11 3.02 -11 2 C-7.17010894 0.19769832 -4.21878192 -0.19622241 0 0 Z " fill="#B0AFAC" transform="translate(325,300)"/>
<path d="M0 0 C0.99 0.99 1.98 1.98 3 3 C-0.66291938 5.47785723 -3.6109185 6.48964169 -8 7 C-8.66 6.01 -9.32 5.02 -10 4 C-9.34 4 -8.68 4 -8 4 C-8 3.34 -8 2.68 -8 2 C-7.05125 1.855625 -6.1025 1.71125 -5.125 1.5625 C-2.1065506 1.17064601 -2.1065506 1.17064601 0 0 Z " fill="#15130D" transform="translate(118,374)"/>
<path d="M0 0 C1 3 1 3 0 6 C0.33 6.99 0.66 7.98 1 9 C-1.70879335 10.35439668 -4.00933268 10.06501451 -7 10 C-5.50867052 5.27745665 -5.50867052 5.27745665 -2.9375 3.875 C-2.298125 3.58625 -1.65875 3.2975 -1 3 C-0.67 2.01 -0.34 1.02 0 0 Z " fill="#252318" transform="translate(399,373)"/>
<path d="M0 0 C3.63 0 7.26 0 11 0 C10.67 1.32 10.34 2.64 10 4 C7.03 4 4.06 4 1 4 C0.67 2.68 0.34 1.36 0 0 Z " fill="#D4D2D1" transform="translate(212,299)"/>
<path d="M0 0 C0.66 0.33 1.32 0.66 2 1 C1.01 1.33 0.02 1.66 -1 2 C-1 2.66 -1 3.32 -1 4 C-3.58008592 5.29004296 -5.55741574 5.20410224 -8.4375 5.25 C-9.40558594 5.27578125 -10.37367188 5.3015625 -11.37109375 5.328125 C-14 5 -14 5 -15.84765625 3.484375 C-16.22792969 2.99453125 -16.60820312 2.5046875 -17 2 C-16.19175781 2.02320313 -15.38351562 2.04640625 -14.55078125 2.0703125 C-13.48214844 2.08835937 -12.41351563 2.10640625 -11.3125 2.125 C-10.25675781 2.14820313 -9.20101563 2.17140625 -8.11328125 2.1953125 C-4.96913299 1.99806355 -2.87591792 1.19871885 0 0 Z " fill="#C1A758" transform="translate(314,516)"/>
<path d="M0 0 C0.33 0 0.66 0 1 0 C1.14444051 9.77380802 0.67739911 17.88644568 -3 27 C-4.4510198 24.0979604 -3.34430622 22.02462576 -2.61328125 18.99609375 C-1.33136224 12.73347031 -0.73198781 6.34649009 0 0 Z " fill="#BEA55B" transform="translate(327,124)"/>
<path d="M0 0 C-1.2375 0.28875 -2.475 0.5775 -3.75 0.875 C-6.75723554 1.95739152 -7.78321596 2.6301569 -9.421875 5.42578125 C-10.39934088 7.92965219 -11.26302276 10.41573112 -12 13 C-13.26517758 8.70406121 -12.94975087 6.12447299 -11 2 C-7.59878611 0.10687151 -3.65754872 -1.82877436 0 0 Z " fill="#C0A95A" transform="translate(339,487)"/>
<path d="M0 0 C0.99 0.66 1.98 1.32 3 2 C3.1875 5.625 3.1875 5.625 3 9 C-1.75 10 -1.75 10 -4 10 C-4 9.01 -4 8.02 -4 7 C-3.01 6.34 -2.02 5.68 -1 5 C-0.27034634 2.43717258 -0.27034634 2.43717258 0 0 Z " fill="#ECBFC9" transform="translate(350,312)"/>
<path d="M0 0 C0.33 0 0.66 0 1 0 C1.1799928 5.21979128 0.97094808 9.07262981 -1 14 C-1.66 14 -2.32 14 -3 14 C-3 15.65 -3 17.3 -3 19 C-3.66 18.67 -4.32 18.34 -5 18 C-4.566875 16.8553125 -4.566875 16.8553125 -4.125 15.6875 C-2.87302832 11.58381506 -2.15536864 7.52172035 -1.46484375 3.29296875 C-1 1 -1 1 0 0 Z " fill="#CEB45E" transform="translate(434,318)"/>
<path d="M0 0 C0.33 0 0.66 0 1 0 C1 2.31 1 4.62 1 7 C-0.32 7.33 -1.64 7.66 -3 8 C-3 8.99 -3 9.98 -3 11 C-0.69 11.33 1.62 11.66 4 12 C4 12.33 4 12.66 4 13 C1.03 13 -1.94 13 -5 13 C-5.33 11.35 -5.66 9.7 -6 8 C-3 6 -3 6 0 6 C0 4.02 0 2.04 0 0 Z " fill="#5C5749" transform="translate(258,158)"/>
<path d="M0 0 C0.66 0.33 1.32 0.66 2 1 C0.7315625 1.804375 0.7315625 1.804375 -0.5625 2.625 C-5.618596 6.01174364 -10.49898465 9.31141607 -13 15 C-13.33 14.34 -13.66 13.68 -14 13 C-11.7935742 7.85167314 -7.39854621 4.29890965 -3 1 C-2.01 0.67 -1.02 0.34 0 0 Z " fill="#ECCCC6" transform="translate(158,299)"/>
<path d="M0 0 C0.33 0.66 0.66 1.32 1 2 C3.02463255 2.65213292 3.02463255 2.65213292 5 3 C4.071875 3.2475 3.14375 3.495 2.1875 3.75 C-1.27751592 5.10882977 -1.92766098 6.07988593 -4 9 C-6.0625 9.6875 -6.0625 9.6875 -8 10 C-8.99 10.495 -8.99 10.495 -10 11 C-8.55218207 7.55571735 -6.72305391 5.63869038 -3.875 3.25 C-3.15054688 2.63640625 -2.42609375 2.0228125 -1.6796875 1.390625 C-0.84824219 0.70226562 -0.84824219 0.70226562 0 0 Z " fill="#DEB8BE" transform="translate(156,301)"/>
<path d="M0 0 C0.66 0.33 1.32 0.66 2 1 C0.90344712 2.31886772 -0.20253423 3.62990057 -1.3125 4.9375 C-1.92738281 5.66839844 -2.54226562 6.39929688 -3.17578125 7.15234375 C-5 9 -5 9 -8 10 C-6.5682479 4.98886765 -4.01554307 3.05530451 0 0 Z " fill="#3A3016" transform="translate(232,16)"/>
<path d="M0 0 C0.97674523 3.09748658 1.05539128 3.84921262 -0.125 7.0625 C-2.12690348 10.19881545 -3.69432714 11.39183483 -7 13 C-5.54331217 10.03216871 -3.98767914 7.13584687 -2.375 4.25 C-1.92898438 3.45078125 -1.48296875 2.6515625 -1.0234375 1.828125 C-0.68570312 1.22484375 -0.34796875 0.6215625 0 0 Z " fill="#B8A054" transform="translate(422,350)"/>
<path d="M0 0 C0.185625 0.598125 0.37125 1.19625 0.5625 1.8125 C2.72273753 5.09981799 5.35107655 5.64854687 9 7 C4.99799622 8.60080151 1.95443764 7.29279692 -2 6 C-1.125 1.125 -1.125 1.125 0 0 Z " fill="#AB9753" transform="translate(414,363)"/>
<path d="M0 0 C0.33 0.99 0.66 1.98 1 3 C-0.43359375 5.04296875 -0.43359375 5.04296875 -2.4375 7.1875 C-3.09621094 7.90292969 -3.75492188 8.61835938 -4.43359375 9.35546875 C-5.20896484 10.16951172 -5.20896484 10.16951172 -6 11 C-6.99 10.67 -7.98 10.34 -9 10 C-6.03 6.7 -3.06 3.4 0 0 Z " fill="#CEC7B1" transform="translate(146,207)"/>
<path d="M0 0 C0.58265625 0.21527344 1.1653125 0.43054688 1.765625 0.65234375 C0.981875 1.27109375 0.198125 1.88984375 -0.609375 2.52734375 C-3.20275147 4.55093036 -3.20275147 4.55093036 -5.234375 6.65234375 C-6.554375 5.99234375 -7.874375 5.33234375 -9.234375 4.65234375 C-8.16330383 3.78285058 -7.07691556 2.9322017 -5.984375 2.08984375 C-5.38109375 1.61417969 -4.7778125 1.13851563 -4.15625 0.6484375 C-2.234375 -0.34765625 -2.234375 -0.34765625 0 0 Z " fill="#C6BDA8" transform="translate(114.234375,380.34765625)"/>
<path d="M0 0 C0.33 1.32 0.66 2.64 1 4 C-2.83325617 6.70582788 -5.32538149 7.32613618 -10 7 C-10.33 6.34 -10.66 5.68 -11 5 C-8.36 5 -5.72 5 -3 5 C-3 4.34 -3 3.68 -3 3 C-2.01 3 -1.02 3 0 3 C0 2.01 0 1.02 0 0 Z " fill="#342C15" transform="translate(138,396)"/>
<path d="M0 0 C1.32 0.33 2.64 0.66 4 1 C4 2.65 4 4.3 4 6 C3.34 6 2.68 6 2 6 C2 6.66 2 7.32 2 8 C1.34 7.67 0.68 7.34 0 7 C0 4.69 0 2.38 0 0 Z " fill="#E9BFC6" transform="translate(273,343)"/>
<path d="M0 0 C1.1589934 4.16863754 1.27896343 7.67606689 1 12 C-2 14 -2 14 -4.1875 13.625 C-4.785625 13.41875 -5.38375 13.2125 -6 13 C-5.36578125 12.61199219 -4.7315625 12.22398437 -4.078125 11.82421875 C-1.49048758 9.55274003 -1.27301005 8.16848119 -0.75 4.8125 C-0.60046875 3.91144531 -0.4509375 3.01039063 -0.296875 2.08203125 C-0.19890625 1.39496094 -0.1009375 0.70789063 0 0 Z " fill="#B19398" transform="translate(361,314)"/>
<path d="M0 0 C0.66 0 1.32 0 2 0 C0.16508812 4.74018901 -1.91941459 9.36413251 -4 14 C-5.13643966 10.59068103 -4.86747764 9.99664544 -3.5625 6.8125 C-3.27503906 6.09707031 -2.98757812 5.38164062 -2.69140625 4.64453125 C-2.46324219 4.10183594 -2.23507813 3.55914062 -2 3 C-1.34 3 -0.68 3 0 3 C0 2.01 0 1.02 0 0 Z " fill="#D0B662" transform="translate(113,234)"/>
<path d="M0 0 C7.38461538 -0.36923077 7.38461538 -0.36923077 10.5 1.5 C10.995 1.995 11.49 2.49 12 3 C10.56260487 3.02712066 9.12506137 3.04645067 7.6875 3.0625 C6.48673828 3.07990234 6.48673828 3.07990234 5.26171875 3.09765625 C3 3 3 3 0 2 C0 1.34 0 0.68 0 0 Z " fill="#2E240E" transform="translate(108,401)"/>
<path d="M0 0 C2.96175123 0.61277612 4.38058783 1.25372522 7 3 C5.35 3.33 3.7 3.66 2 4 C1.67 5.32 1.34 6.64 1 8 C-0.65 8 -2.3 8 -4 8 C-2.68 7.67 -1.36 7.34 0 7 C0 4.69 0 2.38 0 0 Z " fill="#C5AD63" transform="translate(397,398)"/>
<path d="M0 0 C0.33 0.66 0.66 1.32 1 2 C-1.31 2.33 -3.62 2.66 -6 3 C-6.33 4.65 -6.66 6.3 -7 8 C-7.33 8 -7.66 8 -8 8 C-8.04254356 6.00045254 -8.04080783 3.99958364 -8 2 C-6.03177114 0.03177114 -2.65191291 0.33751619 0 0 Z " fill="#B6AF9B" transform="translate(306,488)"/>
<path d="M0 0 C2.97 0 5.94 0 9 0 C9 0.33 9 0.66 9 1 C7.35 1 5.7 1 4 1 C3.34 2.32 2.68 3.64 2 5 C1.34 4.67 0.68 4.34 0 4 C0 2.68 0 1.36 0 0 Z " fill="#444135" transform="translate(396,393)"/>
<path d="M0 0 C0 1.65 0 3.3 0 5 C-1.65 5.33 -3.3 5.66 -5 6 C-4.6875 4.125 -4.6875 4.125 -4 2 C-1 0 -1 0 0 0 Z " fill="#19100E" transform="translate(195,320)"/>
<path d="M0 0 C0.99 0 1.98 0 3 0 C2.67 2.31 2.34 4.62 2 7 C1.01 6.34 0.02 5.68 -1 5 C-0.67 3.35 -0.34 1.7 0 0 Z " fill="#1C1311" transform="translate(373,308)"/>
<path d="M0 0 C0.598125 0.226875 1.19625 0.45375 1.8125 0.6875 C0.8225 0.6875 -0.1675 0.6875 -1.1875 0.6875 C-1.8475 2.0075 -2.5075 3.3275 -3.1875 4.6875 C-3.8475 4.6875 -4.5075 4.6875 -5.1875 4.6875 C-5.1875 5.6775 -5.1875 6.6675 -5.1875 7.6875 C-5.8475 7.6875 -6.5075 7.6875 -7.1875 7.6875 C-4.27205882 -0.61029412 -4.27205882 -0.61029412 0 0 Z " fill="#4E3C3F" transform="translate(348.1875,306.3125)"/>
<path d="M0 0 C0 0.99 0 1.98 0 3 C-2.31 3 -4.62 3 -7 3 C-7 2.34 -7 1.68 -7 1 C-4.53721199 -0.231394 -2.7204945 -0.07159196 0 0 Z " fill="#EEEDEA" transform="translate(322,302)"/>
<path d="M0 0 C0.33 1.32 0.66 2.64 1 4 C-1.4375 6.75 -1.4375 6.75 -4 9 C-4.66 8.67 -5.32 8.34 -6 8 C-4.02 5.36 -2.04 2.72 0 0 Z " fill="#CEC7B0" transform="translate(136,218)"/>
<path d="M0 0 C1.65 0.33 3.3 0.66 5 1 C4.67 2.32 4.34 3.64 4 5 C3.67 4.01 3.34 3.02 3 2 C1.02 2.66 -0.96 3.32 -3 4 C-2.01 2.68 -1.02 1.36 0 0 Z " fill="#454237" transform="translate(276,377)"/>
<path d="M0 0 C0.33 0.66 0.66 1.32 1 2 C-1.47812494 5.45167403 -2.79606135 7.23163306 -7 8 C-6.02133662 6.85373678 -5.04205413 5.70800212 -4.0625 4.5625 C-3.51722656 3.92441406 -2.97195312 3.28632813 -2.41015625 2.62890625 C-1.63204305 1.73008851 -0.84063472 0.84063472 0 0 Z " fill="#4A3C1A" transform="translate(144,197)"/>
<path d="M0 0 C0.33 0 0.66 0 1 0 C1 2.64 1 5.28 1 8 C0.01 8 -0.98 8 -2 8 C-1.125 2.25 -1.125 2.25 0 0 Z " fill="#F3E1A8" transform="translate(396,397)"/>
<path d="M0 0 C0.33 0.99 0.66 1.98 1 3 C-0.65 4.32 -2.3 5.64 -4 7 C-3.6875 4.625 -3.6875 4.625 -3 2 C-2.01 1.34 -1.02 0.68 0 0 Z " fill="#3F3718" transform="translate(100,381)"/>
<path d="M0 0 C2 2 2 2 2.125 5.125 C2.08375 6.07375 2.0425 7.0225 2 8 C1.34 7.34 0.68 6.68 0 6 C-0.99 6.495 -0.99 6.495 -2 7 C-1.34 4.69 -0.68 2.38 0 0 Z " fill="#EDC7C8" transform="translate(390,311)"/>
<path d="M0 0 C1.32 0.66 2.64 1.32 4 2 C3.01 3.485 3.01 3.485 2 5 C0.68 4.34 -0.64 3.68 -2 3 C-1.34 2.67 -0.68 2.34 0 2 C0 1.34 0 0.68 0 0 Z " fill="#100E05" transform="translate(110,376)"/>
<path d="M0 0 C0.33 0 0.66 0 1 0 C1 1.98 1 3.96 1 6 C-0.98 6.99 -0.98 6.99 -3 8 C-1.125 2.25 -1.125 2.25 0 0 Z " fill="#C4A3A8" transform="translate(349,311)"/>
<path d="M0 0 C7.38461538 -0.36923077 7.38461538 -0.36923077 10.5 1.5 C10.995 1.995 11.49 2.49 12 3 C10.125 3.625 10.125 3.625 8 4 C7.34 3.34 6.68 2.68 6 2 C4.01178687 1.60235737 2.01055661 1.26224651 0 1 C0 0.67 0 0.34 0 0 Z " fill="#ECC7C5" transform="translate(368,300)"/>
<path d="M0 0 C0.33 0.66 0.66 1.32 1 2 C0.14883791 4.43189168 -0.84845643 6.69691285 -2 9 C-2.66 9 -3.32 9 -4 9 C-2.25 2.25 -2.25 2.25 0 0 Z " fill="#BFB9A5" transform="translate(296,24)"/>
</svg>
